<?xml version="1.0" encoding="utf-8"?>
<!-- Generator: Adobe Illustrator 16.0.0, SVG Export Plug-In . SVG Version: 6.00 Build 0)  -->
<!DOCTYPE svg PUBLIC "-//W3C//DTD SVG 1.1//EN" "http://www.w3.org/Graphics/SVG/1.1/DTD/svg11.dtd">
<svg version="1.1" id="Layer_1" xmlns="http://www.w3.org/2000/svg" xmlns:xlink="http://www.w3.org/1999/xlink" x="0px" y="0px"
	 width="75px" height="48px" viewBox="0 0 75 48" enable-background="new 0 0 75 48" xml:space="preserve">
<g>
	<path fill="#720185" d="M46.333,6.863C32.94,10.983,19.055,15.255,5.661,19.377l-1.933-4.776c-0.705-1.237-0.319-2.804,1.185-3.254
		c3.644-1.12,8.752-2.692,12.371-3.807c4.581-1.409,10.053-3.093,14.634-4.501c2.692-0.829,6.537-2.012,9.221-2.838
		c1.184-0.371,2.586,0.212,3.055,1.372C44.697,2.885,45.825,5.563,46.333,6.863z"/>
	<g>
		<polygon fill="#FFFFFF" points="11.588,17.391 14.558,16.639 7.659,18.763 10.144,9.738 14.024,8.543 		"/>
		<polygon fill="#FFFFFF" points="18.67,15.375 14.786,16.569 17.284,7.541 21.168,6.345 		"/>
		<polygon fill="#FFFFFF" points="28.264,4.162 25.707,13.21 21.808,14.409 24.366,5.361 		"/>
		<polygon fill="#FFFFFF" points="35.782,1.849 33.371,10.851 29.505,12.041 31.918,3.039 		"/>
		<path fill="#FFFFFF" d="M40.376,8.695l-3.825,1.179l2.236-8.949c0.902-0.215,2.795-1.09,3.723-0.757L40.376,8.695z"/>
	</g>
	<g opacity="0.56">
		<path fill="#440284" d="M46.333,6.863C32.94,10.983,19.055,15.255,5.661,19.377l-1.933-4.776c3.387-1.414,5.539-0.344,6.927,1.609
			L45.373,4.488L46.333,6.863z"/>
	</g>
	<path fill="#720185" d="M46.569,20.245l0.407,23.157c0.021,1.101-0.933,2.009-2.127,2.03L8.479,46.072
		c-1.194,0.021-2.177-0.854-2.196-1.954L5.875,20.962c-0.019-1.1,0.932-2.009,2.126-2.03l36.372-0.641
		C45.566,18.27,46.549,19.145,46.569,20.245z"/>
	<path fill="#440284" d="M46.903,39.213c-0.21,1.989,1.144,6.086-2.054,6.219L8.479,46.072c-3.198-0.019-1.992-4.163-2.271-6.143
		L46.903,39.213z"/>
	<path fill="#FFFFFF" d="M46.569,20.245l0.064,3.718L5.94,24.681c0.151-1.904-1.001-5.633,2.061-5.749l36.372-0.641
		C45.566,18.27,46.549,19.145,46.569,20.245z"/>
	<g>
		<polygon fill="#720185" points="17.368,24.478 12.775,24.559 9.881,18.898 14.476,18.818 		"/>
		<polygon fill="#720185" points="26.497,24.318 21.904,24.399 19.012,18.738 23.604,18.657 		"/>
		<polygon fill="#720185" points="35.627,24.157 31.032,24.238 28.14,18.577 32.734,18.496 		"/>
		<polygon fill="#720185" points="44.758,23.996 40.162,24.076 37.27,18.416 41.863,18.335 		"/>
	</g>
	
		<rect x="5.948" y="24.322" transform="matrix(0.9998 -0.0176 0.0176 0.9998 -0.4366 0.4677)" fill="#440284" width="40.701" height="1.335"/>
	
		<rect x="6.26" y="42.427" transform="matrix(0.9998 -0.0176 0.0176 0.9998 -0.7462 0.4746)" fill="#D5B6D8" width="40.701" height="0.474"/>
	<g>
		<path fill="#D5B6D8" d="M46.728,29.239l-0.007-0.475c-12.237,0.216-28.474,0.501-40.696,0.717l0.008,0.476l13.171-0.231
			l0.074,4.156L6.106,34.114l0.008,0.475c12.219-0.215,28.465-0.501,40.695-0.717l-0.008-0.476l-14.344,0.253l-0.073-4.156
			L46.728,29.239z M31.744,33.662L19.99,33.87l-0.073-4.158l11.755-0.206L31.744,33.662z"/>
	</g>
	<g opacity="0.49">
		<g>
			<path fill="#D5B6D8" d="M15.263,31.874l-5.812,0.101c-0.442,0.02-0.325-0.603-0.346-0.875c-0.003-0.182,0.142-0.333,0.324-0.337
				l5.812-0.102c0.442-0.017,0.325,0.605,0.346,0.876C15.59,31.72,15.446,31.871,15.263,31.874z"/>
		</g>
		<g>
			<path fill="#D5B6D8" d="M41.9,31.405l-5.813,0.101c-0.441,0.019-0.323-0.604-0.346-0.875c-0.002-0.184,0.142-0.334,0.326-0.336
				l5.812-0.104c0.44-0.017,0.324,0.604,0.344,0.877C42.229,31.25,42.083,31.4,41.9,31.405z"/>
		</g>
		<g>
			<path fill="#D5B6D8" d="M15.352,36.902L9.54,37.006c-0.441,0.018-0.325-0.604-0.346-0.877c-0.003-0.182,0.142-0.332,0.324-0.336
				l5.812-0.102c0.442-0.018,0.325,0.605,0.346,0.876C15.68,36.75,15.534,36.9,15.352,36.902z"/>
		</g>
		<g>
			<path fill="#D5B6D8" d="M20.908,36.806l-3.292,0.058c-0.442,0.017-0.325-0.604-0.346-0.876c-0.004-0.182,0.142-0.333,0.324-0.336
				l3.292-0.058c0.183-0.005,0.333,0.142,0.335,0.323C21.207,36.19,21.354,36.808,20.908,36.806z"/>
		</g>
	</g>
	<g opacity="0.56">
		<path fill="#440284" d="M46.609,22.623l0.024,1.34L5.94,24.681c-0.118-5.293-0.69-5.921,5.142-5.803
			c-0.186,2.114-0.598,3.37-2.162,4.409L46.609,22.623z"/>
	</g>
	<path fill="#720185" d="M9.661,20.233c-1.481,4.681-8.994,2.748-7.635-2.121C3.506,13.431,11.02,15.363,9.661,20.233z"/>
	<path fill="#FFCA61" d="M7.73,19.112c0.108,2.33-3.596,2.324-3.774,0.12C3.847,16.902,7.552,16.908,7.73,19.112z"/>
</g>
<g>
	<g>
		<g>
			<g>
				<path fill="#FFF0B3" d="M69.176,10.651c-1.044,1.965-3.673,0.702-4.6-1.146c-2.434-0.487-2.05-5.114,1.644-2.559
					c0,0-1.116-1.308,0.192-2.261c1.306-0.952,3.112,0.734,3.168,1.545c0.055,0.807,0.055,0.807,0.055,0.807
					c0.849-0.681,1.783,0.993,0.657,1.479c0.466,0.115,1.508,0.835,1.402,1.687C71.665,11.448,69.176,10.651,69.176,10.651z"/>
				<g opacity="0.55">
					<path fill="#FFA861" d="M71.694,10.204c0.011-0.367-0.108-0.663-0.279-0.899c-0.62,0.493-2.289-0.042-2.289-0.042
						c-1.046,1.964-3.678,0.701-4.599-1.145c0,0-1.001-0.279-1.403-1.151c-0.638,1.464,1.157,2.569,1.452,2.54
						c0.93,1.854,3.56,3.108,4.6,1.146C69.176,10.651,71.665,11.448,71.694,10.204z"/>
				</g>
				<path opacity="0.49" fill="#FFA861" d="M66.737,9.868c-0.46,0.251-1.029,0.381-1.602,0.434c-0.358-0.426-0.56-0.796-0.56-0.796
					s2.646,0.341,2.762-0.644c0.114-0.983,0.114-0.983,0.114-0.983S68.376,8.982,66.737,9.868z"/>
				<path opacity="0.49" fill="#FFA861" d="M71.023,8.908c-3.493,0.895-3.582-1.5-3.582-1.5c0.844,1.476,1.521,1.489,2.851,1.108
					C70.292,8.517,70.662,8.631,71.023,8.908z"/>
				<path opacity="0.54" fill="#E24242" d="M68.648,8.634c-0.44,1.365-2.665,0.561-2.245-0.765
					C66.84,6.504,69.062,7.31,68.648,8.634z"/>
				<path fill="#E24242" d="M68.391,7.582c-0.06,0.973-1.439,1.223-2.029,0.494C66.359,10.137,69.718,9.432,68.391,7.582z"/>
				<path fill="#FFF7D7" d="M69.086,5.944c-0.289,0.918-2.667,0.077-2.375-0.807C67,4.222,69.379,5.061,69.086,5.944z"/>
			</g>
			<g>
				<g>
					<path fill="#FFF0B3" d="M62.46,16.098c-0.599,3.388-4.974,2.803-7.242,0.556c-3.766,0.467-5.476-6.465,1.143-4.526
						c0,0-2.255-1.372-0.818-3.389c1.433-2.022,4.881-0.44,5.354,0.716c0.472,1.153,0.472,1.153,0.472,1.153
						c0.902-1.406,3.072,0.586,1.674,1.84c0.754-0.061,2.572,0.481,2.861,1.781C66.464,16.063,62.46,16.098,62.46,16.098z"/>
					<g opacity="0.55">
						<path fill="#FFA861" d="M65.902,14.229c-0.167-0.539-0.485-0.915-0.844-1.176c-0.663,1.016-3.35,1.043-3.35,1.043
							c-0.601,3.387-4.973,2.802-7.243,0.556c0,0-1.583,0.079-2.593-0.998c-0.215,2.44,2.927,3.184,3.345,2.999
							c2.277,2.256,6.648,2.822,7.242-0.556C62.46,16.098,66.464,16.063,65.902,14.229z"/>
					</g>
					<path opacity="0.49" fill="#FFA861" d="M58.531,16.138c-0.552,0.586-1.309,1.048-2.118,1.408
						c-0.725-0.452-1.195-0.892-1.195-0.892s4.007-0.783,3.694-2.274c-0.308-1.493-0.308-1.493-0.308-1.493
						S60.484,14.053,58.531,16.138z"/>
					<path opacity="0.49" fill="#FFA861" d="M64.293,12.663c-4.641,2.995-5.927-0.452-5.927-0.452
						c1.936,1.738,2.921,1.442,4.675,0.237C63.041,12.448,63.634,12.434,64.293,12.663z"/>
					<path opacity="0.54" fill="#E24242" d="M60.707,13.413c0.024,2.208-3.596,2.103-3.63-0.026
						C57.053,11.18,60.673,11.284,60.707,13.413z"/>
					<path fill="#E24242" d="M59.824,12.002c0.39,1.447-1.498,2.48-2.707,1.703c0.178,0.765,0.929,1.347,1.813,1.354
						C60.721,15.126,61.358,12.813,59.824,12.002z"/>
					<path fill="#FFF7D7" d="M60.039,9.281c0.023,1.477-3.839,1.398-3.839-0.03C56.176,7.773,60.036,7.853,60.039,9.281z"/>
				</g>
				<path opacity="0.62" fill="#E24242" d="M51.973,14.516c-0.082-0.278-0.121-0.573-0.1-0.86l0,0
					c0.106-1.501,1.806-2.485,4.487-1.527c0,0-2.255-1.372-0.818-3.389c1.433-2.022,4.881-0.44,5.354,0.716
					c0.472,1.153,0.472,1.153,0.472,1.153c0.902-1.406,3.072,0.586,1.674,1.84c0.563-0.092,2.368,0.456,2.69,1.375
					c1.34,2.043-3.15,2.352-3.271,2.275c-0.599,3.388-4.974,2.803-7.242,0.556C55.226,16.729,52.481,16.582,51.973,14.516z"/>
			</g>
			<g>
				<g>
					<path fill="#FFF0B3" d="M69.291,17.543c-1.73,2.671-5.436,0.665-6.664-2.083c-3.556-0.962-2.526-7.459,2.65-3.471
						c0,0-1.521-1.972,0.489-3.19c2.009-1.221,4.517,1.348,4.521,2.502c0.008,1.156,0.008,1.156,0.008,1.156
						c1.309-0.884,2.531,1.584,0.831,2.167c0.648,0.194,2.148,1.322,1.908,2.532C72.877,18.926,69.291,17.543,69.291,17.543z"/>
					<g opacity="0.55">
						<path fill="#FFA861" d="M73.035,17.156c0.049-0.518-0.1-0.95-0.327-1.304c-0.957,0.638-3.366-0.289-3.366-0.289
							c-1.731,2.672-5.435,0.666-6.664-2.084c0,0-1.44-0.494-1.957-1.771c-1.069,2.046,1.488,3.763,1.906,3.751
							c1.233,2.758,4.943,4.748,6.664,2.083C69.291,17.543,72.877,18.926,73.035,17.156z"/>
					</g>
					<path opacity="0.49" fill="#FFA861" d="M65.771,16.188c-0.699,0.308-1.546,0.434-2.396,0.457
						c-0.488-0.643-0.749-1.185-0.749-1.185s3.86,0.744,4.12-0.641c0.261-1.386,0.261-1.386,0.261-1.386
						S68.265,15.094,65.771,16.188z"/>
					<path opacity="0.49" fill="#FFA861" d="M72.168,15.25c-5.223,0.923-5.131-2.483-5.131-2.483
						c1.109,2.215,2.172,2.249,4.09,1.856C71.127,14.624,71.66,14.823,72.168,15.25z"/>
					<path opacity="0.54" fill="#E24242" d="M68.696,14.623c-0.753,1.881-3.966,0.558-3.234-1.307
						C66.215,11.44,69.43,12.762,68.696,14.623z"/>
					<path fill="#E24242" d="M68.413,13.107c-0.184,1.389-2.236,1.582-3.026,0.499c-0.117,0.719,0.346,1.48,1.131,1.798
						C68.058,16.09,69.501,14.376,68.413,13.107z"/>
					<path fill="#FFF7D7" d="M69.586,10.851c-0.493,1.265-3.922-0.139-3.419-1.381C66.658,8.207,70.091,9.61,69.586,10.851z"/>
				</g>
				<path opacity="0.62" fill="#E24242" d="M60.502,12.478c0.027-0.266,0.097-0.529,0.219-0.77l0,0
					c0.636-1.245,2.507-1.487,4.557,0.281c0,0-1.521-1.972,0.489-3.19c2.009-1.221,4.517,1.348,4.521,2.502
					c0.008,1.156,0.008,1.156,0.008,1.156c1.309-0.884,2.531,1.584,0.831,2.167c0.497,0.1,1.956,1.223,1.906,2.13
					c0.447,2.231-3.666,0.884-3.742,0.789c-1.73,2.671-5.436,0.665-6.664-2.083C62.607,15.521,60.217,14.439,60.502,12.478z"/>
			</g>
			<g>
				<g>
					<path fill="#FFF0B3" d="M60.365,10.235c-0.522,3.12-4.441,2.542-6.479,0.473c-3.351,0.415-4.965-5.974,0.991-4.158
						c0,0-2.028-1.273-0.759-3.121c1.271-1.851,4.366-0.376,4.798,0.687c0.43,1.063,0.43,1.063,0.43,1.063
						c0.798-1.29,2.756,0.556,1.513,1.701c0.678-0.048,2.329,0.469,2.573,1.653C63.946,10.222,60.365,10.235,60.365,10.235z"/>
					<g opacity="0.55">
						<path fill="#FFA861" d="M63.432,8.533c-0.153-0.494-0.439-0.842-0.766-1.085C62.078,8.38,59.677,8.39,59.677,8.39
							c-0.521,3.119-4.439,2.541-6.48,0.472c0,0-1.415,0.062-2.328-0.933c-0.156,2.249,2.591,2.931,3.018,2.779
							c2.047,2.076,5.96,2.639,6.479-0.473C60.365,10.235,63.946,10.222,63.432,8.533z"/>
					</g>
					<path opacity="0.49" fill="#FFA861" d="M56.848,10.249c-0.489,0.535-1.168,0.958-1.885,1.284
						c-0.654-0.418-1.077-0.825-1.077-0.825s3.58-0.699,3.293-2.072c-0.292-1.375-0.292-1.375-0.292-1.375
						S58.58,8.345,56.848,10.249z"/>
					<path opacity="0.49" fill="#FFA861" d="M61.98,7.087c-4.129,2.725-5.31-0.45-5.31-0.45c1.708,1.577,2.598,1.368,4.188,0.243
						C60.858,6.88,61.392,6.871,61.98,7.087z"/>
					<path opacity="0.54" fill="#E24242" d="M58.775,7.755c0,2.055-3.183,1.909-3.252-0.045C55.523,5.654,58.707,5.802,58.775,7.755
						z"/>
					<path fill="#E24242" d="M57.975,6.454c0.359,1.32-1.317,2.276-2.411,1.55c0.169,0.703,0.844,1.241,1.637,1.254
						C58.818,9.328,59.34,7.189,57.975,6.454z"/>
					<path fill="#FFF7D7" d="M58.148,3.951c0.021,1.373-3.434,1.254-3.438-0.045C54.688,2.534,58.144,2.65,58.148,3.951z"/>
				</g>
				<path opacity="0.62" fill="#E24242" d="M50.964,8.72c-0.076-0.255-0.11-0.526-0.096-0.792l0,0
					c0.087-1.379,1.601-2.275,4.009-1.379c0,0-2.028-1.273-0.759-3.121c1.271-1.851,4.366-0.376,4.798,0.687
					c0.43,1.063,0.43,1.063,0.43,1.063c0.798-1.29,2.756,0.556,1.513,1.701c0.499-0.088,2.147,0.456,2.42,1.282
					c1.215,1.869-2.799,2.145-2.913,2.073c-0.522,3.12-4.441,2.542-6.479,0.473C53.896,10.778,51.425,10.616,50.964,8.72z"/>
			</g>
			<g>
				<g>
					<path fill="#FFF0B3" d="M53.109,15.469c-0.522,3.119-4.438,2.543-6.478,0.472c-3.349,0.418-4.965-5.974,0.992-4.156
						c0,0-2.03-1.273-0.761-3.123c1.271-1.849,4.37-0.375,4.8,0.689c0.431,1.063,0.431,1.063,0.431,1.063
						c0.797-1.288,2.758,0.554,1.513,1.703c0.676-0.049,2.327,0.465,2.571,1.651C56.692,15.457,53.109,15.469,53.109,15.469z"/>
					<g opacity="0.55">
						<path fill="#FFA861" d="M56.178,13.768c-0.153-0.497-0.438-0.843-0.766-1.085c-0.582,0.934-2.989,0.939-2.989,0.939
							c-0.521,3.124-4.438,2.544-6.479,0.472c0,0-1.415,0.065-2.329-0.931c-0.154,2.25,2.594,2.932,3.018,2.777
							c2.046,2.077,5.96,2.64,6.478-0.472C53.109,15.469,56.692,15.457,56.178,13.768z"/>
					</g>
					<path opacity="0.49" fill="#FFA861" d="M49.594,15.483c-0.487,0.535-1.165,0.957-1.885,1.284
						c-0.655-0.421-1.077-0.827-1.077-0.827s3.58-0.699,3.293-2.069c-0.29-1.375-0.29-1.375-0.29-1.375S51.327,13.579,49.594,15.483
						z"/>
					<path opacity="0.49" fill="#FFA861" d="M54.728,12.321c-4.133,2.728-5.311-0.45-5.311-0.45c1.71,1.579,2.599,1.371,4.189,0.246
						C53.606,12.117,54.136,12.107,54.728,12.321z"/>
					<path opacity="0.54" fill="#E24242" d="M51.522,12.99c0,2.054-3.187,1.906-3.251-0.047
						C48.27,10.889,51.455,11.038,51.522,12.99z"/>
					<path fill="#E24242" d="M50.723,11.689c0.358,1.32-1.314,2.275-2.413,1.55c0.167,0.703,0.843,1.244,1.635,1.253
						C51.564,14.562,52.087,12.423,50.723,11.689z"/>
					<path fill="#FFF7D7" d="M50.896,9.186c0.021,1.371-3.435,1.254-3.438-0.047C47.435,7.769,50.888,7.884,50.896,9.186z"/>
				</g>
				<path opacity="0.62" fill="#E24242" d="M43.713,13.954c-0.078-0.256-0.114-0.524-0.099-0.791l0,0
					c0.086-1.378,1.602-2.272,4.01-1.379c0,0-2.03-1.273-0.761-3.123c1.271-1.849,4.37-0.375,4.8,0.689
					c0.431,1.063,0.431,1.063,0.431,1.063c0.797-1.288,2.758,0.554,1.513,1.703c0.494-0.091,2.147,0.455,2.417,1.278
					c1.216,1.869-2.797,2.146-2.914,2.074c-0.522,3.119-4.438,2.543-6.478,0.472C46.642,16.011,44.173,15.85,43.713,13.954z"/>
			</g>
			<g>
				<path fill="#FFF0B3" d="M70.25,16.747c-0.06,3.167-3.995,3.165-6.301,1.375c-3.236,0.878-5.721-5.27,0.387-4.285
					c0,0-2.175-0.986-1.188-3.008c0.983-2.024,4.237-0.984,4.813,0.016c0.573,1.002,0.573,1.002,0.573,1.002
					c0.599-1.397,2.786,0.168,1.728,1.486c0.669-0.144,2.352,0.145,2.761,1.289C73.771,16.234,70.25,16.747,70.25,16.747z"/>
				<g opacity="0.55">
					<path fill="#FFA861" d="M73.025,14.622c-0.223-0.472-0.553-0.78-0.906-0.976C71.677,14.656,69.316,15,69.316,15
						c-0.059,3.17-3.999,3.167-6.303,1.375c0,0-1.385,0.259-2.424-0.606c0.16,2.251,2.952,2.567,3.359,2.351
						c2.315,1.796,6.25,1.784,6.301-1.375C70.25,16.747,73.771,16.234,73.025,14.622z"/>
				</g>
				<path opacity="0.49" fill="#FFA861" d="M66.798,17.25c-0.403,0.604-1.009,1.118-1.671,1.543
					c-0.703-0.327-1.178-0.672-1.178-0.672s3.422-1.198,2.945-2.525c-0.481-1.328-0.481-1.328-0.481-1.328
					S68.232,15.109,66.798,17.25z"/>
				<path opacity="0.49" fill="#FFA861" d="M71.394,13.379c-3.675,3.298-5.282,0.293-5.282,0.293c1.905,1.331,2.73,1.013,4.15-0.339
					C70.262,13.333,70.783,13.25,71.394,13.379z"/>
				<path opacity="0.54" fill="#E24242" d="M68.336,14.495c0.295,2.051-2.855,2.346-3.2,0.409
					C64.843,12.852,67.996,12.555,68.336,14.495z"/>
				<path fill="#E24242" d="M67.368,13.309c0.538,1.26-0.961,2.455-2.152,1.883c0.265,0.679,1.005,1.122,1.783,1.022
					C68.605,16.056,68.81,13.847,67.368,13.309z"/>
				<path fill="#FFF7D7" d="M67.184,10.787c0.211,1.366-3.197,1.731-3.388,0.433C63.582,9.857,66.992,9.491,67.184,10.787z"/>
			</g>
			<g>
				<path fill="#FFF0B3" d="M65.948,8.261c1.311,2.851-2.008,4.653-4.945,3.965c-2.549,2.204-7.281-2.47-1.53-4.126
					c0,0-2.345,0.019-2.356-2.273c-0.014-2.291,3.3-2.721,4.243-2.042c0.939,0.679,0.939,0.679,0.939,0.679
					C62.218,2.912,64.83,3.437,64.468,5.1c0.542-0.426,2.137-0.87,2.992,0.012C68.82,6.282,65.948,8.261,65.948,8.261z"/>
				<g opacity="0.55">
					<path fill="#FFA861" d="M67.46,5.112c-0.399-0.345-0.826-0.487-1.222-0.519c0.053,1.125-1.876,2.454-1.876,2.454
						c1.313,2.852-2.008,4.656-4.946,3.966c0,0-1.104,0.83-2.392,0.476c1.1,1.988,3.676,1.14,3.979,0.737
						c2.947,0.692,6.255-1.125,4.945-3.965C65.948,8.261,68.82,6.282,67.46,5.112z"/>
				</g>
				<path opacity="0.49" fill="#FFA861" d="M63.129,10.205c-0.093,0.729-0.402,1.465-0.798,2.141
					c-0.762-0.004-1.328-0.12-1.328-0.12s2.487-2.569,1.488-3.594C61.49,7.608,61.49,7.608,61.49,7.608S63.456,7.61,63.129,10.205z"
					/>
				<path opacity="0.49" fill="#FFA861" d="M65.482,4.659c-1.796,4.621-4.518,2.531-4.518,2.531
					c2.302,0.417,2.837-0.252,3.503-2.089C64.468,5.1,64.887,4.8,65.482,4.659z"/>
				<path opacity="0.54" fill="#E24242" d="M63.282,6.996c1.147,1.739-1.461,3.409-2.639,1.748
					C59.498,7.004,62.105,5.334,63.282,6.996z"/>
				<path fill="#E24242" d="M61.91,6.315c1.008,0.914,0.266,2.666-1.072,2.66C63.23,10.836,64.972,6.549,61.91,6.315z"/>
				<path fill="#FFF7D7" d="M60.649,4.064c0.784,1.147-2.031,2.975-2.791,1.848C57.075,4.764,59.891,2.937,60.649,4.064z"/>
			</g>
			<g>
				<path fill="#FFF0B3" d="M55.813,11.809c-0.049,2.8-3.53,2.795-5.568,1.212c-2.86,0.777-5.055-4.657,0.344-3.787
					c0,0-1.925-0.869-1.051-2.658c0.869-1.787,3.745-0.869,4.255,0.016c0.505,0.884,0.505,0.884,0.505,0.884
					c0.528-1.233,2.463,0.15,1.531,1.314c0.589-0.127,2.074,0.128,2.438,1.141C58.926,11.355,55.813,11.809,55.813,11.809z"/>
				<g opacity="0.55">
					<path fill="#FFA861" d="M58.266,9.93c-0.195-0.42-0.485-0.689-0.802-0.864c-0.391,0.896-2.477,1.198-2.477,1.198
						c-0.052,2.801-3.534,2.797-5.569,1.213c0,0-1.222,0.231-2.141-0.533c0.114,1.967,2.638,2.279,2.967,2.077
						c2.049,1.588,5.522,1.579,5.568-1.212C55.813,11.809,58.926,11.355,58.266,9.93z"/>
				</g>
				<path opacity="0.49" fill="#FFA861" d="M52.761,12.253c-0.354,0.533-0.891,0.987-1.474,1.363
					c-0.622-0.288-1.043-0.595-1.043-0.595s3.025-1.057,2.603-2.231c-0.425-1.176-0.425-1.176-0.425-1.176
					S54.027,10.358,52.761,12.253z"/>
				<path opacity="0.49" fill="#FFA861" d="M56.826,8.832c-3.248,2.915-4.67,0.26-4.67,0.26c1.684,1.173,2.416,0.893,3.672-0.302
					C55.828,8.79,56.284,8.716,56.826,8.832z"/>
				<path opacity="0.54" fill="#E24242" d="M54.127,9.816c0.254,1.812-2.529,2.074-2.835,0.361
					C51.034,8.366,53.822,8.104,54.127,9.816z"/>
				<path fill="#E24242" d="M53.267,8.769c0.478,1.112-0.851,2.17-1.901,1.664C52.562,12.77,55.696,10.134,53.267,8.769z"/>
				<path fill="#FFF7D7" d="M53.103,6.541c0.188,1.206-2.825,1.53-2.991,0.382C49.919,5.717,52.935,5.393,53.103,6.541z"/>
			</g>
			<g>
				<path fill="#FFF0B3" d="M57.185,6.229c0.017,1.663-2.183,1.693-3.362,0.734c-1.729,0.47-3.052-2.812,0.205-2.285
					c0,0-1.162-0.526-0.636-1.606c0.528-1.08,2.264-0.525,2.569,0.009c0.307,0.536,0.307,0.536,0.307,0.536
					c0.328-0.75,1.487,0.098,0.924,0.791c0.356-0.074,1.254,0.079,1.471,0.691C59.064,5.956,57.185,6.229,57.185,6.229z"/>
				<g opacity="0.55">
					<path fill="#FFA861" d="M58.662,5.098c-0.113-0.255-0.292-0.418-0.479-0.523c-0.238,0.54-1.496,0.722-1.496,0.722
						c0.014,1.667-2.185,1.692-3.363,0.734c0,0-0.74,0.139-1.295-0.323c0.07,1.187,1.595,1.378,1.794,1.254
						c1.184,0.96,3.379,0.924,3.362-0.734C57.185,6.229,59.064,5.956,58.662,5.098z"/>
				</g>
				<path opacity="0.49" fill="#FFA861" d="M55.339,6.499c-0.212,0.321-0.537,0.597-0.891,0.822
					c-0.371-0.174-0.626-0.357-0.626-0.357s1.825-0.641,1.569-1.349c-0.254-0.707-0.254-0.707-0.254-0.707
					S56.107,5.354,55.339,6.499z"/>
				<path opacity="0.49" fill="#FFA861" d="M57.793,4.434c-1.958,1.76-2.817,0.155-2.817,0.155c0.99,0.708,1.484,0.534,2.216-0.182
					C57.191,4.407,57.468,4.362,57.793,4.434z"/>
				<path opacity="0.54" fill="#E24242" d="M56.162,5.029c0.191,1.073-1.56,1.246-1.709,0.218C54.268,4.173,56.016,4,56.162,5.029z"
					/>
				<path fill="#E24242" d="M55.646,4.396c0.288,0.673-0.514,1.31-1.148,1.006C55.186,6.817,57.121,5.192,55.646,4.396z"/>
				<path fill="#FFF7D7" d="M55.544,3.051c0.137,0.719-1.723,0.921-1.807,0.229C53.607,2.562,55.466,2.358,55.544,3.051z"/>
			</g>
			<g>
				<path fill="#FFF0B3" d="M49.609,16.02c-0.058,3.167-3.997,3.162-6.302,1.374c-3.237,0.88-5.719-5.269,0.386-4.285
					c0,0-2.176-0.987-1.189-3.008c0.984-2.022,4.238-0.984,4.813,0.018c0.575,1.001,0.575,1.001,0.575,1.001
					c0.598-1.397,2.788,0.167,1.728,1.485c0.669-0.144,2.356,0.145,2.763,1.292C53.127,15.506,49.609,16.02,49.609,16.02z"/>
				<g opacity="0.55">
					<path fill="#FFA861" d="M52.382,13.896c-0.22-0.475-0.549-0.783-0.906-0.978c-0.44,1.01-2.803,1.354-2.803,1.354
						c-0.062,3.169-3.999,3.165-6.304,1.375c0,0-1.381,0.261-2.42-0.605c0.163,2.254,2.951,2.566,3.358,2.352
						c2.314,1.794,6.247,1.785,6.302-1.374C49.609,16.02,53.127,15.506,52.382,13.896z"/>
				</g>
				<path opacity="0.49" fill="#FFA861" d="M46.155,16.521c-0.404,0.604-1.011,1.118-1.671,1.544
					c-0.702-0.328-1.177-0.672-1.177-0.672s3.423-1.196,2.943-2.526c-0.479-1.331-0.479-1.331-0.479-1.331
					S47.589,14.379,46.155,16.521z"/>
				<path opacity="0.49" fill="#FFA861" d="M50.753,12.651c-3.675,3.296-5.283,0.293-5.283,0.293c1.903,1.33,2.733,1.013,4.149-0.34
					C49.619,12.604,50.142,12.522,50.753,12.651z"/>
				<path opacity="0.54" fill="#E24242" d="M47.697,13.767c0.291,2.05-2.862,2.344-3.203,0.408
					C44.202,12.125,47.353,11.829,47.697,13.767z"/>
				<path fill="#E24242" d="M46.727,12.582c0.538,1.258-0.963,2.454-2.152,1.88c0.265,0.678,1.004,1.121,1.783,1.023
					C47.965,15.328,48.165,13.117,46.727,12.582z"/>
				<path fill="#FFF7D7" d="M46.539,10.06c0.215,1.364-3.195,1.73-3.385,0.433C42.939,9.127,46.349,8.763,46.539,10.06z"/>
			</g>
		</g>
		<path fill="#D12A6A" d="M39.78,17.522l5.373,28.894c0.073,0.614,0.63,1.072,1.286,1.054l12.438-0.265
			c0.648-0.017,1.192-0.487,1.262-1.1l3.158-28.569c0.079-0.707-0.501-1.313-1.255-1.321l-14.39-0.034l-4.427-0.013
			C42.131,16.24,39.649,15.698,39.78,17.522z"/>
		<path fill="#D5B6D8" d="M62.043,16.215l-14.39-0.034l3.415,31.192l7.81-0.169c0.648-0.017,1.192-0.487,1.262-1.1l3.158-28.569
			C63.377,16.83,62.797,16.223,62.043,16.215z"/>
		<path fill="#D5B6D8" d="M39.78,17.522l5.373,28.894c0.161,1.265,1.615,1.06,2.553,1.029l-4.479-31.277
			C42.111,16.236,39.653,15.701,39.78,17.522z"/>
		<path fill="#F8F1FD" d="M50.194,17.297l3.419,28.934c0.072,0.616,0.628,1.072,1.287,1.059l14.388-0.313
			c0.652-0.011,1.196-0.483,1.265-1.097l3.159-28.568c0.076-0.706-0.503-1.316-1.256-1.318c-3.88-0.01-8.87-0.022-12.761-0.033
			l-5.572-0.015C52.995,16.073,50.05,15.335,50.194,17.297z"/>
		<polygon fill="#F23D6C" points="65.648,47.056 68.014,47.007 71.13,15.99 67.804,15.98 		"/>
		<polygon fill="#F23D6C" points="59.695,15.96 60.758,47.165 62.962,47.117 63.217,15.969 		"/>
		<path fill="#F23D6C" d="M50.194,17.297l3.419,28.934c0.161,1.525,2.416,0.946,3.417,1.011l-2.907-31.296
			C52.982,16.068,50.051,15.344,50.194,17.297z"/>
	</g>
</g>
<g>
	<g>
		<path fill="#66246D" d="M-43.116,152.089v18.898c0,1.024-0.83,1.854-1.855,1.854H-59.79c-1.025,0-1.855-0.83-1.855-1.854v-18.898
			c0-1.024,0.83-1.854,1.855-1.854h14.818C-43.946,150.234-43.116,151.064-43.116,152.089z"/>
		<path fill="#8EEFCE" d="M-48.279,171.001c-11.053-0.55-8.804,2.876-9.025-8.063c0-0.426,0.345-0.771,0.771-0.771
			c11.053,0.55,8.803-2.876,9.025,8.063C-47.509,170.655-47.854,171.001-48.279,171.001z"/>
		<g>
			<path fill="#D8CBD7" d="M-44.342,152.045c-0.172,3.822,0.808,3.313-1.976,3.326c-0.442,0.146-0.133-3.164-0.22-3.326
				c0-0.164,0.098-0.297,0.22-0.297h1.756C-44.44,151.748-44.342,151.881-44.342,152.045z"/>
			<path fill="#D8CBD7" d="M-44.342,157.255c-0.172,3.822,0.808,3.313-1.976,3.326c-0.442,0.146-0.133-3.165-0.22-3.326
				c0-0.164,0.098-0.297,0.22-0.297h1.756C-44.44,156.958-44.342,157.091-44.342,157.255z"/>
			<path fill="#D8CBD7" d="M-44.342,162.465c-0.172,3.822,0.808,3.313-1.976,3.326c-0.442,0.146-0.133-3.165-0.22-3.326
				c0-0.164,0.098-0.298,0.22-0.298h1.756C-44.44,162.167-44.342,162.301-44.342,162.465z"/>
			<path fill="#D8CBD7" d="M-44.342,167.674c-0.172,3.823,0.808,3.313-1.976,3.327c-0.442,0.146-0.133-3.165-0.22-3.327
				c0-0.164,0.098-0.297,0.22-0.297h1.756C-44.44,167.377-44.342,167.51-44.342,167.674z"/>
		</g>
		<g>
			<path fill="#D8CBD7" d="M-58.233,152.045c-0.172,3.822,0.808,3.313-1.976,3.326c-0.442,0.146-0.133-3.164-0.22-3.326
				c0-0.164,0.099-0.297,0.22-0.297h1.756C-58.331,151.748-58.233,151.881-58.233,152.045z"/>
			<path fill="#D8CBD7" d="M-58.233,157.255c-0.172,3.822,0.808,3.313-1.976,3.326c-0.442,0.146-0.133-3.165-0.22-3.326
				c0-0.164,0.099-0.297,0.22-0.297h1.756C-58.331,156.958-58.233,157.091-58.233,157.255z"/>
			<path fill="#D8CBD7" d="M-58.233,162.465c-0.172,3.822,0.808,3.313-1.976,3.326c-0.442,0.146-0.133-3.165-0.22-3.326
				c0-0.164,0.099-0.298,0.22-0.298h1.756C-58.331,162.167-58.233,162.301-58.233,162.465z"/>
			<path fill="#D8CBD7" d="M-58.233,167.674c-0.172,3.823,0.808,3.313-1.976,3.327c-0.442,0.146-0.133-3.165-0.22-3.327
				c0-0.164,0.099-0.297,0.22-0.297h1.756C-58.331,167.377-58.233,167.51-58.233,167.674z"/>
		</g>
		<path fill="#FFCA61" d="M-48.279,160.581c-11.053-0.55-8.804,2.877-9.025-8.063c0-0.426,0.345-0.771,0.771-0.771
			c11.053,0.55,8.803-2.877,9.025,8.063C-47.509,160.236-47.854,160.581-48.279,160.581z"/>
		<g opacity="0.33">
			<path fill="#D12A6A" d="M-47.509,157.977v2.072c0,0.294-0.238,0.532-0.532,0.532h-8.731c-0.293,0-0.532-0.238-0.532-0.532v-7.77
				c0-0.293,0.238-0.531,0.532-0.531h1.537v5.695c0,0.294,0.239,0.533,0.533,0.533H-47.509z"/>
		</g>
		<path fill="#66C1DD" d="M-47.509,168.396v2.072c0,0.294-0.238,0.533-0.532,0.533h-8.731c-0.293,0-0.532-0.239-0.532-0.533v-7.769
			c0-0.294,0.238-0.532,0.532-0.532h1.537v5.696c0,0.294,0.239,0.532,0.533,0.532H-47.509z"/>
	</g>
</g>
</svg>
